<svg xmlns="http://www.w3.org/2000/svg" viewBox="0 0 272.528 285.098"><defs><style>.cls-1{fill:#2c7be5;}.cls-2{fill:tomato;}</style></defs><g id="logo"><circle class="cls-1" cx="184.862" cy="330.586" r="16.667" transform="translate(-160.154 -101.564) rotate(-9.254)"/><circle class="cls-1" cx="241.863" cy="330.586" r="16.667" transform="translate(-265.789 290.802) rotate(-67.337)"/><ellipse class="cls-2" cx="124.088" cy="151.507" rx="12.715" ry="12.577"/><path class="cls-1" d="M347.834,135.593h-22.04a49.169,49.169,0,0,0-48.233,39.87c-.04.215-.075.43-.1.648l-.707,5.774H119.14a9.741,9.741,0,0,0-8.883,13.739l37.31,82.91a9.74,9.74,0,0,0,8.882,5.744H217.07a16.647,16.647,0,0,1,32.834,0h.511a9.742,9.742,0,0,0,9.714-9.027l3.455-46.982a9.742,9.742,0,0,0-9.715-10.456H177.177a9.741,9.741,0,1,0,0,19.482h66.209l-2.023,27.5H162.748l-28.543-63.429H274.366l-10.894,88.906H249.838a16.664,16.664,0,0,1-32.7,0H159.9a9.741,9.741,0,0,0,0,19.482H272.093a9.74,9.74,0,0,0,9.668-8.557l14.993-122.369a29.664,29.664,0,0,1,29.04-23.754h22.04a9.741,9.741,0,0,0,0-19.482Z" transform="translate(-109.399 -135.593)"/><path class="cls-1" d="M138.286,410.052v-9.481a13.865,13.865,0,0,1,1.159-6.159,7,7,0,0,1,3.461-3.36,16.195,16.195,0,0,1,11.42,0,7.019,7.019,0,0,1,3.44,3.36,13.864,13.864,0,0,1,1.16,6.159v9.481Zm3.719-1.68-1.88-1.64h16.96l-1.879,1.64v-7.72a13.174,13.174,0,0,0-.581-4.36,3.769,3.769,0,0,0-2.04-2.26,9.838,9.838,0,0,0-3.98-.66,9.7,9.7,0,0,0-3.96.66,3.855,3.855,0,0,0-2.04,2.26,12.8,12.8,0,0,0-.6,4.36Zm2.08-21.6v-3.88h3.761v3.88Zm5.48,0v-3.88h3.761v3.88Z" transform="translate(-109.399 -135.593)"/><path class="cls-1" d="M160.726,419.212a10.715,10.715,0,0,1-1.1-.06q-.579-.061-1.18-.1l.321-3.32c.4.026.766.053,1.1.08s.607.04.82.04a3.545,3.545,0,0,0,2.9-1.36,5.892,5.892,0,0,0,1.1-3.8v-20.68h3.76v20.68a9.472,9.472,0,0,1-1,4.44,7.61,7.61,0,0,1-2.719,3A7.364,7.364,0,0,1,160.726,419.212Zm6.879-9.16v-3.32h5.121v3.32Zm5.121,0v-3.32a.617.617,0,0,1,.659.44,4.114,4.114,0,0,1,.14,1.2,4.328,4.328,0,0,1-.14,1.22A.618.618,0,0,1,172.726,410.052Z" transform="translate(-109.399 -135.593)"/><path class="cls-1" d="M172.725,410.052a.619.619,0,0,1-.66-.46,4.328,4.328,0,0,1-.14-1.22,4.114,4.114,0,0,1,.14-1.2.618.618,0,0,1,.66-.44Zm0,0v-3.32h6.8l-1.92,1.52v-18.24h3.72v20.04Zm1.6,7.519v-3.879h3.76v3.879Zm5.48,0v-3.879h3.76v3.879Z" transform="translate(-109.399 -135.593)"/><path class="cls-1" d="M187.123,419.212a10.707,10.707,0,0,1-1.1-.06q-.581-.061-1.18-.1l.32-3.32q.6.039,1.1.08c.333.026.606.04.819.04a3.547,3.547,0,0,0,2.9-1.36,5.892,5.892,0,0,0,1.1-3.8v-20.68h3.761v20.68a9.484,9.484,0,0,1-1,4.44,7.607,7.607,0,0,1-2.721,3A7.359,7.359,0,0,1,187.123,419.212Zm3.96-32.8v-3.88h3.761v3.88Zm2.92,23.64v-3.32h5.12v3.32Zm5.12,0v-3.32a.618.618,0,0,1,.661.44,4.114,4.114,0,0,1,.14,1.2,4.328,4.328,0,0,1-.14,1.22A.619.619,0,0,1,199.123,410.052Z" transform="translate(-109.399 -135.593)"/><path class="cls-1" d="M199.123,410.052a.619.619,0,0,1-.66-.46,4.37,4.37,0,0,1-.139-1.22,4.154,4.154,0,0,1,.139-1.2.618.618,0,0,1,.66-.44Zm0,0v-3.32h17.52l-1.2,1v-9.24a4.606,4.606,0,0,0-1.58-3.8,7.728,7.728,0,0,0-4.9-1.28q-1,0-2.859.159t-3.94.481l-.4-3.04q1.641-.4,3.561-.7a23.957,23.957,0,0,1,3.719-.3,13.237,13.237,0,0,1,5.38,1,7.858,7.858,0,0,1,3.5,2.9,8.2,8.2,0,0,1,1.241,4.58v11.56Zm8.281,7.559v-3.879h3.76v3.879Zm11.76-7.559v-3.32h4.32v3.32Zm4.32,0v-3.32a.622.622,0,0,1,.639.44,3.608,3.608,0,0,1,.161,1.2,3.794,3.794,0,0,1-.161,1.22A.623.623,0,0,1,223.484,410.052Z" transform="translate(-109.399 -135.593)"/><path class="cls-1" d="M223.484,410.052a.617.617,0,0,1-.66-.46,4.328,4.328,0,0,1-.14-1.22,4.114,4.114,0,0,1,.14-1.2.616.616,0,0,1,.66-.44Zm0,0v-3.32h4.76v3.32Zm4.76,0v-28.56h3.72v28.56Z" transform="translate(-109.399 -135.593)"/><path class="cls-1" d="M238.723,410.052v-28.56h3.721v28.56Z" transform="translate(-109.399 -135.593)"/><path class="cls-1" d="M267.363,420.692a13,13,0,0,1-5.46-1.121,9.634,9.634,0,0,1-3.9-3.1,7.521,7.521,0,0,1-1.44-4.54,22,22,0,0,1,.16-2.28q.161-1.44.38-3.16t.5-3.5q.281-1.779.521-3.26l3.679.52q-.4,2.721-.76,4.98t-.54,3.92a25.363,25.363,0,0,0-.179,2.54,5.208,5.208,0,0,0,.88,3.06,5.624,5.624,0,0,0,2.46,1.94,9.3,9.3,0,0,0,3.7.68h9.319a7.632,7.632,0,0,0,4.9-1.4,4.661,4.661,0,0,0,1.741-3.84v-20.08l1.559,1.32h-6.32a8.7,8.7,0,0,0-3.359.52,2.927,2.927,0,0,0-1.641,1.96,20.311,20.311,0,0,0,0,8.4,2.929,2.929,0,0,0,1.641,1.96,8.679,8.679,0,0,0,3.359.52h4.761v3.32h-4.761a11.816,11.816,0,0,1-5.48-1.06,6.038,6.038,0,0,1-2.86-3.28,18.945,18.945,0,0,1,0-11.28,6.223,6.223,0,0,1,2.86-3.321,11.458,11.458,0,0,1,5.48-1.1h8.48v22.12a7.655,7.655,0,0,1-1.419,4.68,8.791,8.791,0,0,1-3.781,2.9,13.331,13.331,0,0,1-5.16.98Zm7.119-33.92v-3.88h3.761v3.88Zm5.48,0v-3.88h3.76v3.88Z" transform="translate(-109.399 -135.593)"/><path class="cls-1" d="M298.922,419.212a22.022,22.022,0,0,1-3.02-.22q-1.581-.22-3.46-.62l.559-3q2.121.24,3.521.36t2.4.12a7.308,7.308,0,0,0,4.659-1.2,4.243,4.243,0,0,0,1.46-3.48v-18.8l1.521,1h-6.28a8.877,8.877,0,0,0-3.32.5,2.984,2.984,0,0,0-1.68,1.96,14.418,14.418,0,0,0-.48,4.26,13.816,13.816,0,0,0,.48,4.18,3.052,3.052,0,0,0,1.66,1.94,8.526,8.526,0,0,0,3.34.52h4.759v3.32h-4.759a11.814,11.814,0,0,1-5.48-1.06,6.038,6.038,0,0,1-2.86-3.28,15.717,15.717,0,0,1-.861-5.62,16.022,16.022,0,0,1,.861-5.68,6.122,6.122,0,0,1,2.86-3.32,11.618,11.618,0,0,1,5.48-1.08h8.48v21.12a7.781,7.781,0,0,1-1.2,4.38,7.468,7.468,0,0,1-3.4,2.76A13.282,13.282,0,0,1,298.922,419.212Zm9.84-9.16v-3.32h4.279v3.32Zm4.279,0v-3.32a.618.618,0,0,1,.661.44,4.114,4.114,0,0,1,.14,1.2,4.328,4.328,0,0,1-.14,1.22A.619.619,0,0,1,313.041,410.052Z" transform="translate(-109.399 -135.593)"/><path class="cls-1" d="M313.041,410.052a.619.619,0,0,1-.66-.46,4.37,4.37,0,0,1-.139-1.22,4.154,4.154,0,0,1,.139-1.2.618.618,0,0,1,.66-.44Zm0,0v-3.32h5.84l-.92.92v-13.6h3.72v16Zm8.64,0v-3.32h4.16a4.108,4.108,0,0,0,2.04-.4,2.363,2.363,0,0,0,.96-1.6,16.549,16.549,0,0,0,.281-3.52v-9.16h3.759v9.16a15.046,15.046,0,0,1-.74,5.2,5.086,5.086,0,0,1-2.26,2.8,8.346,8.346,0,0,1-4.04.84Zm13.08,0a7.672,7.672,0,0,1-2.819-.54,8.225,8.225,0,0,1-2.62-1.7l2.359-2.48a8.027,8.027,0,0,0,1.6,1.06,3.431,3.431,0,0,0,1.479.34H342l-1.639,1.6v-9.36a20.034,20.034,0,0,0-.141-2.02q-.141-1.3-.4-2.96t-.62-3.381l3.639-.6q.281,1.44.561,3.16t.479,3.28a20.812,20.812,0,0,1,.2,2.52v11.08Z" transform="translate(-109.399 -135.593)"/></g><g id="Layer_3" data-name="Layer 3"><g id="back"><path class="cls-2" d="M363.276,277.423H298.9a8.875,8.875,0,0,0-8.874,8.875h0a8.875,8.875,0,0,0,8.874,8.874h64.374a8.875,8.875,0,0,0,8.874-8.874h0A8.875,8.875,0,0,0,363.276,277.423Z" transform="translate(-109.399 -135.593)"/><path class="cls-2" d="M343.272,244.635H304.016a8.874,8.874,0,0,0-8.874,8.874h0a8.874,8.874,0,0,0,8.874,8.874h39.256a8.874,8.874,0,0,0,8.874-8.874h0A8.874,8.874,0,0,0,343.272,244.635Z" transform="translate(-109.399 -135.593)"/><path class="cls-2" d="M373.053,209.59H308.678a8.874,8.874,0,0,0-8.874,8.874h0a8.874,8.874,0,0,0,8.874,8.874h64.375a8.874,8.874,0,0,0,8.874-8.874h0A8.874,8.874,0,0,0,373.053,209.59Z" transform="translate(-109.399 -135.593)"/></g></g></svg>