<svg xmlns="http://www.w3.org/2000/svg" viewBox="0 0 1032.457 211.66"><defs><style>.cls-1{fill:#2c7be5;}.cls-2{fill:tomato;}</style></defs><g id="logo"><circle class="cls-1" cx="346.254" cy="359.601" r="16.667" transform="translate(435.819 -104.248) rotate(-9.254)"/><circle class="cls-1" cx="403.255" cy="359.601" r="16.667" transform="translate(405.18 428.552) rotate(-67.337)"/><ellipse class="cls-2" cx="884.018" cy="151.507" rx="12.715" ry="12.577"/><path class="cls-1" d="M509.226,164.609H487.185a49.168,49.168,0,0,0-48.232,39.869c-.041.216-.075.431-.1.648l-.708,5.775H280.531a9.739,9.739,0,0,0-8.882,13.738l37.309,82.911a9.741,9.741,0,0,0,8.883,5.743h60.62a16.648,16.648,0,0,1,32.835,0h.51a9.742,9.742,0,0,0,9.715-9.026l3.454-46.983a9.742,9.742,0,0,0-9.715-10.456H338.569a9.741,9.741,0,0,0,0,19.482h66.208l-2.022,27.5H324.139L295.6,230.382h140.16l-10.894,88.906H411.229a16.663,16.663,0,0,1-32.7,0H321.3a9.741,9.741,0,0,0,0,19.482H433.484a9.74,9.74,0,0,0,9.668-8.557l14.993-122.368a29.664,29.664,0,0,1,29.04-23.755h22.041a9.741,9.741,0,1,0,0-19.481Z" transform="translate(489.139 -164.609)"/><path class="cls-1" d="M-489.139,323.794v-33.18q0-13.44,4.06-21.56a24.518,24.518,0,0,1,12.11-11.76q8.048-3.639,19.95-3.64,12.039,0,20.02,3.64a24.583,24.583,0,0,1,12.039,11.76q4.06,8.121,4.061,21.56v33.18Zm13.02-5.88-6.58-5.74h59.36l-6.58,5.74v-27.02q0-9.66-2.03-15.26a13.208,13.208,0,0,0-7.14-7.91q-5.113-2.31-13.93-2.31t-13.86,2.31a13.488,13.488,0,0,0-7.14,7.91q-2.1,5.6-2.1,15.26Zm7.28-75.6V228.735h13.16v13.579Zm19.18,0V228.735h13.16v13.579Z" transform="translate(489.139 -164.609)"/><path class="cls-1" d="M-410.6,355.854a37.5,37.5,0,0,1-3.85-.21q-2.026-.21-4.13-.35l1.12-11.62q2.1.138,3.851.28t2.87.14a12.422,12.422,0,0,0,10.15-4.76q3.849-4.761,3.85-13.3v-72.38h13.159v72.38a33.183,33.183,0,0,1-3.5,15.54,26.625,26.625,0,0,1-9.52,10.5A25.769,25.769,0,0,1-410.6,355.854Zm24.08-32.06v-11.62h17.92v11.62Zm17.92,0v-11.62a2.162,2.162,0,0,1,2.31,1.54,14.351,14.351,0,0,1,.491,4.2,15.074,15.074,0,0,1-.491,4.27A2.165,2.165,0,0,1-368.6,323.794Z" transform="translate(489.139 -164.609)"/><path class="cls-1" d="M-368.6,323.794a2.165,2.165,0,0,1-2.31-1.61,15.116,15.116,0,0,1-.49-4.27,14.39,14.39,0,0,1,.49-4.2,2.162,2.162,0,0,1,2.31-1.54Zm0,0v-11.62h23.8l-6.72,5.32v-63.84h13.02v70.14Zm5.6,26.32v-13.58h13.16v13.58Zm19.18,0v-13.58h13.16v13.58Z" transform="translate(489.139 -164.609)"/><path class="cls-1" d="M-318.2,355.854a37.5,37.5,0,0,1-3.85-.21q-2.026-.21-4.13-.35l1.12-11.62q2.1.138,3.851.28t2.87.14a12.422,12.422,0,0,0,10.15-4.76q3.849-4.761,3.85-13.3v-72.38h13.159v72.38a33.183,33.183,0,0,1-3.5,15.54,26.625,26.625,0,0,1-9.52,10.5A25.769,25.769,0,0,1-318.2,355.854Zm13.861-114.8v-13.58h13.159v13.58Zm10.219,82.74v-11.62h17.92v11.62Zm17.92,0v-11.62a2.162,2.162,0,0,1,2.31,1.54,14.351,14.351,0,0,1,.491,4.2,15.074,15.074,0,0,1-.491,4.27A2.165,2.165,0,0,1-276.2,323.794Z" transform="translate(489.139 -164.609)"/><path class="cls-1" d="M-276.2,323.794a2.165,2.165,0,0,1-2.31-1.61,15.116,15.116,0,0,1-.49-4.27,14.39,14.39,0,0,1,.49-4.2,2.162,2.162,0,0,1,2.31-1.54Zm0,0v-11.62h61.32l-4.2,3.5v-32.34q0-8.82-5.53-13.3t-17.15-4.48q-3.5,0-10.01.56t-13.79,1.68l-1.4-10.64q5.739-1.4,12.46-2.45a84.325,84.325,0,0,1,13.02-1.05,46.313,46.313,0,0,1,18.83,3.5A27.5,27.5,0,0,1-210.4,267.3a28.7,28.7,0,0,1,4.34,16.03v40.46Zm28.98,26.46v-13.58h13.16v13.58Zm41.16-26.46v-11.62h15.12v11.62Zm15.12,0v-11.62a2.181,2.181,0,0,1,2.24,1.54,12.713,12.713,0,0,1,.56,4.2,13.349,13.349,0,0,1-.56,4.27A2.185,2.185,0,0,1-190.945,323.794Z" transform="translate(489.139 -164.609)"/><path class="cls-1" d="M-190.946,323.794a2.165,2.165,0,0,1-2.31-1.61,15.116,15.116,0,0,1-.49-4.27,14.39,14.39,0,0,1,.49-4.2,2.162,2.162,0,0,1,2.31-1.54Zm0,0v-11.62h16.66v11.62Zm16.66,0V223.835h13.02v99.959Z" transform="translate(489.139 -164.609)"/><path class="cls-1" d="M-137.607,323.794V223.835h13.02v99.959Z" transform="translate(489.139 -164.609)"/><path class="cls-1" d="M-37.37,361.034a45.607,45.607,0,0,1-19.11-3.92,33.765,33.765,0,0,1-13.65-10.85,26.322,26.322,0,0,1-5.04-15.89,76.22,76.22,0,0,1,.56-7.98q.558-5.04,1.33-11.06t1.75-12.25q.978-6.228,1.82-11.41l12.88,1.82q-1.4,9.522-2.66,17.43t-1.89,13.72a89.024,89.024,0,0,0-.63,8.89,18.228,18.228,0,0,0,3.08,10.71,19.69,19.69,0,0,0,8.61,6.79,32.562,32.562,0,0,0,12.95,2.38H-4.75q11.058,0,17.15-4.9t6.09-13.44v-70.28l5.46,4.62H1.83q-7.56,0-11.76,1.821a10.237,10.237,0,0,0-5.74,6.859q-1.542,5.04-1.54,14.7t1.54,14.7a10.235,10.235,0,0,0,5.74,6.86q4.2,1.823,11.76,1.82H18.49v11.62H1.83q-12.18,0-19.18-3.71A21.131,21.131,0,0,1-27.36,308.6q-3.012-7.77-3.01-19.81,0-11.9,3.01-19.67A21.763,21.763,0,0,1-17.35,257.5q7-3.848,19.18-3.85H31.51v77.42q0,9.66-4.97,16.38A30.724,30.724,0,0,1,13.31,357.6a46.655,46.655,0,0,1-18.06,3.43Zm24.92-118.72V228.735H.71v13.579Zm19.18,0V228.735H19.89v13.579Z" transform="translate(489.139 -164.609)"/><path class="cls-1" d="M73.089,355.854a76.924,76.924,0,0,1-10.57-.77q-5.532-.771-12.11-2.17l1.96-10.5q7.419.84,12.32,1.26t8.4.42q11.2,0,16.309-4.2t5.111-12.18v-65.8l5.321,3.5H77.849q-7.422,0-11.62,1.75a10.449,10.449,0,0,0-5.88,6.861q-1.68,5.111-1.68,14.909,0,9.66,1.68,14.63a10.677,10.677,0,0,0,5.81,6.79q4.128,1.823,11.69,1.82h16.66v11.62H77.849q-12.18,0-19.18-3.71a21.127,21.127,0,0,1-10.01-11.48q-3.012-7.77-3.01-19.67,0-12.039,3.01-19.88a21.427,21.427,0,0,1,10.01-11.62q7-3.78,19.18-3.78h29.68v73.92a27.243,27.243,0,0,1-4.2,15.33,26.139,26.139,0,0,1-11.9,9.66A46.529,46.529,0,0,1,73.089,355.854Zm34.44-32.06v-11.62h14.98v11.62Zm14.98,0v-11.62a2.161,2.161,0,0,1,2.309,1.54,14.39,14.39,0,0,1,.49,4.2,15.116,15.116,0,0,1-.49,4.27A2.164,2.164,0,0,1,122.509,323.794Z" transform="translate(489.139 -164.609)"/><path class="cls-1" d="M122.507,323.794a2.164,2.164,0,0,1-2.309-1.61,15.111,15.111,0,0,1-.491-4.27,14.386,14.386,0,0,1,.491-4.2,2.16,2.16,0,0,1,2.309-1.54Zm0,0v-11.62h20.441l-3.221,3.22v-47.6h13.021v56Zm30.241,0v-11.62h14.559q4.758,0,7.141-1.4t3.359-5.6a58.123,58.123,0,0,0,.981-12.32v-32.06h13.16v32.06q0,11.34-2.591,18.2t-7.909,9.8q-5.323,2.94-14.141,2.94Zm45.779,0a26.862,26.862,0,0,1-9.869-1.89,28.793,28.793,0,0,1-9.17-5.95l8.26-8.679a28.013,28.013,0,0,0,5.6,3.71,12.006,12.006,0,0,0,5.18,1.189h25.341l-5.741,5.6V285.014a70.8,70.8,0,0,0-.49-7.07q-.492-4.548-1.4-10.36t-2.171-11.83l12.74-2.1q.978,5.04,1.96,11.06t1.681,11.48a72.72,72.72,0,0,1,.7,8.82v38.78Z" transform="translate(489.139 -164.609)"/></g><g id="Layer_3" data-name="Layer 3"><g id="back"><path class="cls-2" d="M524.668,306.439H460.293a8.874,8.874,0,0,0-8.874,8.874h0a8.874,8.874,0,0,0,8.874,8.874h64.375a8.874,8.874,0,0,0,8.874-8.874h0A8.874,8.874,0,0,0,524.668,306.439Z" transform="translate(489.139 -164.609)"/><path class="cls-2" d="M504.663,273.65H465.407a8.874,8.874,0,0,0-8.874,8.874h0a8.874,8.874,0,0,0,8.874,8.874h39.256a8.874,8.874,0,0,0,8.874-8.874h0A8.874,8.874,0,0,0,504.663,273.65Z" transform="translate(489.139 -164.609)"/><path class="cls-2" d="M534.444,238.605H470.07a8.874,8.874,0,0,0-8.874,8.874h0a8.874,8.874,0,0,0,8.874,8.874h64.374a8.874,8.874,0,0,0,8.874-8.874h0A8.874,8.874,0,0,0,534.444,238.605Z" transform="translate(489.139 -164.609)"/></g></g></svg>