<svg width="48" height="48" viewBox="0 0 48 48" fill="none" xmlns="http://www.w3.org/2000/svg">
<path d="M13.0208 8.5C11.8218 8.5 10.6719 8.9763 9.82412 9.82412C8.9763 10.6719 8.5 11.8218 8.5 13.0208V18.1875C8.5 19.3865 8.9763 20.5364 9.82412 21.3842C10.6719 22.232 11.8218 22.7083 13.0208 22.7083H18.1875C19.3865 22.7083 20.5364 22.232 21.3842 21.3842C22.232 20.5364 22.7083 19.3865 22.7083 18.1875V13.0208C22.7083 11.8218 22.232 10.6719 21.3842 9.82412C20.5364 8.9763 19.3865 8.5 18.1875 8.5H13.0208ZM13.0208 25.2917C11.8218 25.2917 10.6719 25.768 9.82412 26.6158C8.9763 27.4636 8.5 28.6135 8.5 29.8125V34.9792C8.5 36.1782 8.9763 37.3281 9.82412 38.1759C10.6719 39.0237 11.8218 39.5 13.0208 39.5H18.1875C19.3865 39.5 20.5364 39.0237 21.3842 38.1759C22.232 37.3281 22.7083 36.1782 22.7083 34.9792V29.8125C22.7083 28.6135 22.232 27.4636 21.3842 26.6158C20.5364 25.768 19.3865 25.2917 18.1875 25.2917H13.0208ZM29.8125 8.5C28.6135 8.5 27.4636 8.9763 26.6158 9.82412C25.768 10.6719 25.2917 11.8218 25.2917 13.0208V18.1875C25.2917 19.3865 25.768 20.5364 26.6158 21.3842C27.4636 22.232 28.6135 22.7083 29.8125 22.7083H34.9792C36.1782 22.7083 37.3281 22.232 38.1759 21.3842C39.0237 20.5364 39.5 19.3865 39.5 18.1875V13.0208C39.5 11.8218 39.0237 10.6719 38.1759 9.82412C37.3281 8.9763 36.1782 8.5 34.9792 8.5H29.8125ZM29.8125 25.2917C28.6135 25.2917 27.4636 25.768 26.6158 26.6158C25.768 27.4636 25.2917 28.6135 25.2917 29.8125V34.9792C25.2917 36.1782 25.768 37.3281 26.6158 38.1759C27.4636 39.0237 28.6135 39.5 29.8125 39.5H34.9792C36.1782 39.5 37.3281 39.0237 38.1759 38.1759C39.0237 37.3281 39.5 36.1782 39.5 34.9792V29.8125C39.5 28.6135 39.0237 27.4636 38.1759 26.6158C37.3281 25.768 36.1782 25.2917 34.9792 25.2917H29.8125ZM0.75 8.82292C0.75 6.68185 1.60054 4.62847 3.1145 3.1145C4.62847 1.60054 6.68185 0.75 8.82292 0.75H39.1771C41.3182 0.75 43.3715 1.60054 44.8855 3.1145C46.3995 4.62847 47.25 6.68185 47.25 8.82292V39.1771C47.25 41.3182 46.3995 43.3715 44.8855 44.8855C43.3715 46.3995 41.3182 47.25 39.1771 47.25H8.82292C6.68185 47.25 4.62847 46.3995 3.1145 44.8855C1.60054 43.3715 0.75 41.3182 0.75 39.1771V8.82292ZM8.82292 3.97917C7.53827 3.97917 6.30625 4.48949 5.39787 5.39787C4.48949 6.30625 3.97917 7.53827 3.97917 8.82292V39.1771C3.97917 40.4617 4.48949 41.6937 5.39787 42.6021C6.30625 43.5105 7.53827 44.0208 8.82292 44.0208H39.1771C40.4617 44.0208 41.6937 43.5105 42.6021 42.6021C43.5105 41.6937 44.0208 40.4617 44.0208 39.1771V8.82292C44.0208 7.53827 43.5105 6.30625 42.6021 5.39787C41.6937 4.48949 40.4617 3.97917 39.1771 3.97917H8.82292Z" fill="#2C7BE5"/>
</svg>
