<svg width="32" height="22" viewBox="0 0 32 22" fill="none" xmlns="http://www.w3.org/2000/svg">
<path d="M6.66658 5H-1.66675V1.66667H6.66658V5ZM6.66658 10H-1.66675V13.3333H6.66658V10ZM29.3166 21.6667L22.9333 15.2833C21.5999 16.15 20.0333 16.6667 18.3333 16.6667C13.7333 16.6667 9.99992 12.9333 9.99992 8.33333C9.99992 3.73333 13.7333 0 18.3333 0C22.9333 0 26.6666 3.73333 26.6666 8.33333C26.6666 10.0333 26.1499 11.6 25.2833 12.9167L31.6666 19.3167L29.3166 21.6667ZM23.3333 8.33333C23.3333 5.58333 21.0833 3.33333 18.3333 3.33333C15.5833 3.33333 13.3333 5.58333 13.3333 8.33333C13.3333 11.0833 15.5833 13.3333 18.3333 13.3333C21.0833 13.3333 23.3333 11.0833 23.3333 8.33333ZM-1.66675 21.6667H14.9999V18.3333H-1.66675V21.6667Z" fill="#2C7BE5"/>
</svg>
