<svg width="64" height="58" viewBox="0 0 64 58" fill="none" xmlns="http://www.w3.org/2000/svg">
<path d="M19.3334 44.8333H44.6667V43.0917C44.6667 40.7167 43.5056 38.8293 41.1834 37.4297C38.8612 36.03 35.8 35.3312 32 35.3334C28.2 35.3334 25.1389 36.0332 22.8167 37.4328C20.4945 38.8325 19.3334 40.7188 19.3334 43.0917V44.8333ZM32 32.1667C33.7417 32.1667 35.2332 31.546 36.4745 30.3047C37.7159 29.0633 38.3355 27.5729 38.3334 25.8333C38.3334 24.0917 37.7127 22.6002 36.4714 21.3589C35.23 20.1175 33.7396 19.4979 32 19.5C30.2584 19.5 28.7669 20.1207 27.5255 21.362C26.2842 22.6034 25.6646 24.0938 25.6667 25.8333C25.6667 27.575 26.2874 29.0665 27.5287 30.3078C28.77 31.5492 30.2605 32.1688 32 32.1667ZM6.66671 57.5C4.92505 57.5 3.43355 56.8794 2.19221 55.638C0.950879 54.3967 0.331268 52.9062 0.333379 51.1667V13.1667C0.333379 11.425 0.954046 9.93352 2.19538 8.69219C3.43671 7.45085 4.92716 6.83124 6.66671 6.83335H16.6417L20.6 2.55835C21.1806 1.87224 21.8804 1.35713 22.6995 1.01302C23.5187 0.668908 24.3747 0.497908 25.2677 0.500019H38.726C39.6233 0.500019 40.4814 0.672075 41.3005 1.01619C42.1197 1.3603 42.8184 1.87435 43.3969 2.55835L47.3584 6.83335H57.3334C59.075 6.83335 60.5665 7.45402 61.8079 8.69535C63.0492 9.93669 63.6688 11.4271 63.6667 13.1667V51.1667C63.6667 52.9083 63.046 54.3998 61.8047 55.6412C60.5634 56.8825 59.0729 57.5021 57.3334 57.5H6.66671ZM57.3334 51.1667V13.1667H6.66671V51.1667H57.3334Z" fill="#2C7BE5"/>
</svg>
